<?xml version="1.0" encoding="UTF-8"?>
<svg xmlns="http://www.w3.org/2000/svg" xmlns:xlink="http://www.w3.org/1999/xlink" width="16px" height="16px" viewBox="0 0 16 16" version="1.1">
<g id="surface1">
<path style=" stroke:none;fill-rule:nonzero;fill:rgb(0%,0%,0%);fill-opacity:1;" d="M 8 12.355469 C 6.199219 12.355469 4.265625 11.648438 2.398438 10.320312 C 1.007812 9.324219 0.144531 8.335938 0.109375 8.296875 C -0.0351562 8.125 -0.0351562 7.875 0.109375 7.703125 C 0.144531 7.664062 1.007812 6.675781 2.398438 5.679688 C 4.265625 4.351562 6.199219 3.644531 8 3.644531 C 9.800781 3.644531 11.734375 4.351562 13.601562 5.679688 C 14.992188 6.675781 15.855469 7.664062 15.890625 7.703125 C 16.035156 7.875 16.035156 8.125 15.890625 8.296875 C 15.855469 8.335938 14.992188 9.324219 13.601562 10.320312 C 11.734375 11.648438 9.800781 12.355469 8 12.355469 Z M 1.074219 8 C 1.421875 8.355469 2.078125 8.976562 2.945312 9.59375 C 4.132812 10.441406 5.972656 11.449219 8 11.449219 C 10.027344 11.449219 11.867188 10.441406 13.054688 9.59375 C 13.921875 8.980469 14.578125 8.355469 14.925781 8 C 14.578125 7.644531 13.921875 7.023438 13.054688 6.40625 C 11.867188 5.558594 10.027344 4.550781 8 4.550781 C 5.972656 4.550781 4.132812 5.558594 2.945312 6.40625 C 2.078125 7.023438 1.421875 7.644531 1.074219 8 Z M 1.074219 8 "/>
<path style=" stroke:none;fill-rule:nonzero;fill:rgb(0%,0%,0%);fill-opacity:1;" d="M 8 10.804688 C 6.453125 10.804688 5.195312 9.546875 5.195312 8 C 5.195312 6.453125 6.453125 5.195312 8 5.195312 C 8.679688 5.195312 9.335938 5.441406 9.847656 5.890625 C 10.035156 6.054688 10.054688 6.339844 9.890625 6.527344 C 9.726562 6.714844 9.4375 6.734375 9.25 6.570312 C 8.90625 6.265625 8.460938 6.101562 8 6.101562 C 6.953125 6.101562 6.101562 6.953125 6.101562 8 C 6.101562 9.046875 6.953125 9.898438 8 9.898438 C 9.046875 9.898438 9.898438 9.046875 9.898438 8 C 9.898438 7.75 10.101562 7.546875 10.351562 7.546875 C 10.601562 7.546875 10.804688 7.75 10.804688 8 C 10.804688 9.546875 9.546875 10.804688 8 10.804688 Z M 8 10.804688 "/>
<path style=" stroke:none;fill-rule:nonzero;fill:rgb(0%,0%,0%);fill-opacity:1;" d="M 8 8.90625 C 7.5 8.90625 7.09375 8.5 7.09375 8 C 7.09375 7.5 7.5 7.09375 8 7.09375 C 8.5 7.09375 8.90625 7.5 8.90625 8 C 8.90625 8.5 8.5 8.90625 8 8.90625 Z M 8 8.90625 "/>
</g>
</svg>
