<?xml version="1.0" encoding="utf-8"?>
<svg version="1.0" x="0px" y="0px" viewBox="34.707 0 16 16" enable-background="new 0 0 90 90" xmlns="http://www.w3.org/2000/svg" xmlns:bx="https://boxy-svg.com">
  <path d="M 48 3.486 C 48.492 3.486 48.883 3.002 48.883 2.4 C 48.883 1.797 48.492 1.314 48 1.314 C 47.509 1.314 47.118 1.797 47.118 2.4 C 47.118 3.002 47.509 3.486 48 3.486 Z M 48 1.554 C 48.373 1.554 48.688 1.942 48.688 2.4 C 48.688 2.859 48.373 3.245 48 3.245 C 47.628 3.245 47.314 2.859 47.314 2.4 C 47.314 1.942 47.628 1.554 48 1.554 Z M 36.97 10.361 C 37.108 10.288 37.246 10.241 37.402 10.241 C 37.56 10.241 37.697 10.313 37.834 10.361 C 37.952 10.409 38.07 10.481 38.188 10.481 C 38.247 10.481 38.286 10.529 38.286 10.602 C 38.286 10.674 38.247 10.722 38.188 10.722 C 38.011 10.722 37.893 10.65 37.755 10.602 C 37.639 10.554 37.54 10.481 37.402 10.481 C 37.265 10.481 37.168 10.529 37.049 10.602 C 36.912 10.65 36.775 10.722 36.618 10.722 C 36.559 10.722 36.519 10.674 36.519 10.602 C 36.519 10.529 36.559 10.481 36.618 10.481 C 36.736 10.481 36.854 10.433 36.97 10.361 Z M 37.108 9.637 C 37.108 9.709 37.069 9.758 37.01 9.758 C 36.874 9.758 36.775 9.806 36.657 9.878 C 36.519 9.926 36.382 9.999 36.225 9.999 C 36.166 9.999 36.127 9.95 36.127 9.878 C 36.127 9.806 36.166 9.758 36.225 9.758 C 36.343 9.758 36.46 9.709 36.578 9.637 C 36.716 9.564 36.854 9.516 37.01 9.516 C 37.069 9.516 37.108 9.564 37.108 9.637 Z M 36.578 11.566 C 36.46 11.519 36.362 11.446 36.225 11.446 C 36.166 11.446 36.127 11.398 36.127 11.326 C 36.127 11.253 36.166 11.205 36.225 11.205 C 36.382 11.205 36.519 11.277 36.657 11.326 C 36.775 11.374 36.892 11.446 37.01 11.446 C 37.128 11.446 37.246 11.398 37.363 11.326 C 37.501 11.253 37.639 11.205 37.795 11.205 C 37.854 11.205 37.893 11.253 37.893 11.326 C 37.893 11.398 37.854 11.446 37.795 11.446 C 37.658 11.446 37.56 11.493 37.441 11.566 C 37.303 11.615 37.168 11.688 37.01 11.688 C 36.832 11.688 36.716 11.615 36.578 11.566 Z M 40.641 13.256 C 40.641 13.328 40.602 13.376 40.543 13.376 C 40.406 13.376 40.307 13.424 40.189 13.496 C 40.051 13.546 39.916 13.618 39.757 13.618 C 39.58 13.618 39.464 13.546 39.326 13.496 C 39.208 13.448 39.109 13.376 38.973 13.376 C 38.835 13.376 38.737 13.424 38.62 13.496 C 38.482 13.546 38.344 13.618 38.188 13.618 C 38.011 13.618 37.893 13.546 37.755 13.496 C 37.639 13.448 37.54 13.376 37.402 13.376 C 37.345 13.376 37.303 13.328 37.303 13.256 C 37.303 13.184 37.345 13.135 37.402 13.135 C 37.56 13.135 37.697 13.208 37.834 13.256 C 37.952 13.303 38.07 13.376 38.188 13.376 C 38.305 13.376 38.423 13.328 38.542 13.256 C 38.677 13.184 38.815 13.135 38.973 13.135 C 39.129 13.135 39.267 13.208 39.404 13.256 C 39.523 13.303 39.64 13.376 39.757 13.376 C 39.875 13.376 39.993 13.328 40.111 13.256 C 40.249 13.184 40.387 13.135 40.543 13.135 C 40.602 13.135 40.641 13.184 40.641 13.256 Z M 48.295 10.264 L 48.295 7.949 C 48.295 7.9 48.276 7.876 48.256 7.851 C 48.237 7.828 48.198 7.828 48.178 7.828 L 44.684 9.033 L 41.367 7.587 C 41.328 7.561 41.308 7.587 41.268 7.611 C 41.249 7.634 41.23 7.659 41.23 7.706 L 41.23 9.95 L 40.838 9.781 L 40.838 7.466 C 40.838 7.417 40.816 7.368 40.778 7.345 L 40.249 7.128 L 40.249 5.897 L 41.583 6.404 C 41.073 6.573 40.739 6.596 40.72 6.596 C 40.681 6.596 40.641 6.646 40.621 6.694 C 40.602 6.742 40.641 6.815 40.681 6.815 L 44.605 8.504 C 44.625 8.504 44.625 8.504 44.644 8.504 C 44.644 8.504 44.665 8.504 44.665 8.504 L 48.787 7.056 C 48.825 7.032 48.864 6.984 48.864 6.934 C 48.864 6.887 48.825 6.839 48.787 6.815 C 48.787 6.815 48.747 6.815 48.669 6.791 L 48.669 6.211 C 48.669 6.139 48.628 6.091 48.57 6.091 C 48.511 6.091 48.492 6.187 48.492 6.26 L 48.492 6.791 C 47.785 6.596 45.999 5.897 45.018 3.919 C 45.096 3.847 45.155 3.751 45.155 3.607 C 45.155 3.437 45.076 3.317 44.958 3.269 L 44.958 2.641 C 44.958 2.569 44.919 2.52 44.86 2.52 C 44.802 2.52 44.763 2.569 44.763 2.641 L 44.763 3.269 C 44.644 3.317 44.566 3.462 44.566 3.607 C 44.566 3.726 44.625 3.847 44.704 3.919 C 44.487 4.306 44.252 4.644 43.977 4.934 C 43.801 4.836 42.957 4.329 42.604 3.581 L 42.604 3.124 C 42.604 3.052 42.565 3.002 42.505 3.002 C 42.447 3.002 42.408 3.052 42.408 3.124 L 42.408 3.557 C 41.466 5.367 39.58 5.416 39.561 5.416 C 39.523 5.416 39.464 5.463 39.464 5.512 C 39.464 5.561 39.484 5.632 39.523 5.632 L 40.032 5.825 L 40.032 7.201 C 40.032 7.249 40.051 7.296 40.092 7.321 L 40.621 7.539 L 40.621 7.828 C 40.346 7.876 39.895 7.972 39.424 8.068 C 39.365 6.984 39.129 5.294 38.364 3.798 L 39.09 4.402 C 39.129 4.426 39.169 4.426 39.189 4.402 C 39.228 4.379 39.247 4.329 39.247 4.306 C 39.247 3.919 39.09 3.534 38.973 3.292 L 39.503 3.462 C 39.541 3.462 39.561 3.462 39.58 3.437 C 39.6 3.414 39.621 3.389 39.621 3.341 C 39.621 2.809 39.228 2.472 38.875 2.254 L 39.326 2.254 C 39.365 2.254 39.404 2.231 39.424 2.182 C 39.444 2.135 39.444 2.086 39.404 2.062 C 39.424 2.037 38.914 1.314 38.188 1.314 C 37.717 1.314 37.422 2.037 37.345 2.279 C 37.069 2.279 36.127 2.448 36.127 4.329 C 36.127 4.379 36.147 4.426 36.186 4.451 C 36.225 4.474 36.265 4.451 36.284 4.426 L 36.716 3.896 C 36.736 4.329 36.814 5.101 37.147 5.391 C 37.168 5.416 37.207 5.416 37.246 5.416 C 37.285 5.391 37.303 5.367 37.303 5.344 L 37.441 4.644 C 37.599 4.908 37.873 5.344 38.168 5.416 C 38.168 5.416 38.188 5.416 38.188 5.416 C 38.206 5.416 38.226 5.416 38.247 5.391 C 38.266 5.367 38.286 5.319 38.286 5.294 L 38.129 3.824 C 38.953 5.294 39.189 7.079 39.247 8.142 C 38.286 8.383 37.303 8.744 37.303 9.154 C 37.303 9.516 37.795 9.686 38.344 9.854 C 38.718 9.976 39.267 10.167 39.267 10.361 C 39.267 10.481 39.15 10.554 38.933 10.626 C 38.737 10.698 38.482 10.794 38.482 11.084 C 38.482 11.736 42.055 13.618 44.665 13.618 C 46.843 13.618 49.473 12.363 49.473 11.566 C 49.473 10.843 48.55 10.386 48.295 10.264 Z M 44.979 4.281 C 45.979 6.091 47.628 6.766 48.373 7.007 L 44.802 8.261 C 44.86 7.779 45.018 6.452 44.979 4.281 Z M 44.86 3.486 C 44.919 3.486 44.958 3.534 44.958 3.607 C 44.958 3.679 44.919 3.726 44.86 3.726 C 44.802 3.726 44.763 3.679 44.763 3.607 C 44.763 3.534 44.802 3.486 44.86 3.486 Z M 42.622 4.017 C 42.997 4.572 43.564 4.957 43.821 5.101 C 43.428 5.489 42.997 5.777 42.604 5.994 C 42.622 5.632 42.642 4.861 42.622 4.017 Z M 44.763 4.209 C 44.822 6.477 44.644 7.851 44.586 8.261 L 41.152 6.791 C 41.937 6.622 43.702 6.018 44.763 4.209 Z M 40.051 5.584 C 40.66 5.463 41.719 5.077 42.427 3.944 C 42.466 4.934 42.408 5.825 42.408 6.067 C 42.25 6.139 42.094 6.211 41.956 6.26 L 40.051 5.584 Z M 37.991 3.245 C 37.933 3.245 37.893 3.292 37.893 3.364 C 37.893 3.389 38.07 5.101 38.07 5.101 C 37.815 4.908 37.579 4.451 37.481 4.281 C 37.461 4.234 37.422 4.209 37.402 4.209 C 37.402 4.209 37.402 4.209 37.383 4.209 C 37.345 4.209 37.303 4.257 37.303 4.306 L 37.147 5.053 C 36.951 4.667 36.912 3.919 36.912 3.607 C 36.912 3.557 36.892 3.509 36.854 3.486 C 36.814 3.462 36.775 3.486 36.755 3.509 L 36.323 4.017 C 36.422 2.617 37.128 2.52 37.363 2.52 C 37.383 2.52 37.383 2.52 37.383 2.52 C 37.422 2.52 37.461 2.497 37.481 2.448 C 37.56 2.207 37.834 1.554 38.168 1.554 C 38.581 1.554 38.914 1.845 39.109 2.037 L 38.364 2.037 C 38.305 2.037 38.266 2.086 38.266 2.135 C 38.266 2.207 38.286 2.254 38.344 2.254 C 38.364 2.254 39.286 2.569 39.424 3.196 L 38.796 3.002 C 38.757 2.979 38.718 3.002 38.698 3.052 C 38.677 3.1 38.677 3.147 38.698 3.196 C 38.698 3.196 38.973 3.63 39.052 4.089 C 39.052 4.089 38.129 3.245 37.991 3.245 Z M 47.706 8.238 L 48.099 8.093 L 48.099 8.576 L 47.706 8.721 L 47.706 8.238 Z M 47.706 8.961 L 48.099 8.816 L 48.099 10.264 L 47.706 10.409 L 47.706 8.961 Z M 47.706 10.65 L 48.099 10.505 L 48.099 10.988 L 47.706 11.133 L 47.706 10.65 Z M 47.118 8.431 L 47.509 8.287 L 47.509 8.768 L 47.118 8.914 L 47.118 8.431 Z M 47.118 9.154 L 47.509 9.009 L 47.509 10.458 L 47.118 10.602 L 47.118 9.154 Z M 47.118 10.843 L 47.509 10.698 L 47.509 11.181 L 47.118 11.326 L 47.118 10.843 Z M 46.529 8.648 L 46.921 8.504 L 46.921 8.986 L 46.529 9.131 L 46.529 8.648 Z M 46.529 9.371 L 46.921 9.226 L 46.921 10.674 L 46.529 10.819 L 46.529 9.371 Z M 46.529 11.06 L 46.921 10.915 L 46.921 11.398 L 46.529 11.543 L 46.529 11.06 Z M 45.94 8.842 L 46.332 8.696 L 46.332 9.178 L 45.94 9.323 L 45.94 8.842 Z M 45.94 9.564 L 46.332 9.421 L 46.332 10.866 L 45.94 11.013 L 45.94 9.564 Z M 45.94 11.253 L 46.332 11.109 L 46.332 11.591 L 45.94 11.736 L 45.94 11.253 Z M 45.351 9.033 L 45.744 8.889 L 45.744 9.371 L 45.351 9.516 L 45.351 9.033 Z M 45.351 9.758 L 45.744 9.614 L 45.744 11.06 L 45.351 11.205 L 45.351 9.758 Z M 45.351 11.446 L 45.744 11.302 L 45.744 11.784 L 45.351 11.929 L 45.351 11.446 Z M 44.763 9.251 L 45.155 9.106 L 45.155 9.588 L 44.763 9.733 L 44.763 9.251 Z M 44.763 9.976 L 45.155 9.831 L 45.155 11.277 L 44.763 11.421 L 44.763 9.976 Z M 44.763 11.664 L 45.155 11.519 L 45.155 12.001 L 44.763 12.146 L 44.763 11.664 Z M 44.173 9.059 L 44.566 9.226 L 44.566 9.686 L 44.173 9.516 L 44.173 9.059 Z M 44.173 9.781 L 44.566 9.95 L 44.566 11.374 L 44.173 11.205 L 44.173 9.781 Z M 44.173 11.47 L 44.566 11.638 L 44.566 12.121 L 44.173 11.953 L 44.173 11.47 Z M 42.015 8.142 L 43.977 8.986 L 43.977 11.133 L 43.585 10.964 L 43.585 9.999 C 43.585 9.299 43.173 9.033 42.898 9.033 C 42.661 9.033 42.408 9.251 42.408 9.758 L 42.408 10.458 L 42.015 10.288 L 42.015 8.142 Z M 43.977 11.398 L 43.977 11.881 L 43.585 11.712 L 43.585 11.229 L 43.977 11.398 Z M 42.015 10.554 L 42.408 10.722 L 42.408 11.157 L 42.015 10.988 L 42.015 10.554 Z M 41.425 7.876 L 41.818 8.044 C 41.818 8.044 41.818 8.068 41.818 8.068 L 41.818 8.527 L 41.425 8.359 L 41.425 7.876 Z M 41.425 8.599 L 41.818 8.768 L 41.818 10.192 L 41.425 10.023 L 41.425 8.599 Z M 41.425 10.288 L 41.818 10.458 L 41.818 10.915 L 41.425 10.747 L 41.425 10.288 Z M 44.665 13.376 C 41.995 13.376 38.737 11.47 38.677 11.084 C 38.677 10.964 38.796 10.915 38.992 10.843 C 39.208 10.771 39.464 10.674 39.464 10.361 C 39.464 9.926 40.15 9.758 40.17 9.758 C 40.229 9.758 40.268 9.686 40.249 9.614 C 40.249 9.541 40.189 9.492 40.131 9.516 C 40.111 9.516 39.523 9.661 39.326 10.071 C 39.15 9.878 38.776 9.758 38.384 9.637 C 38.031 9.516 37.481 9.348 37.481 9.154 C 37.481 8.961 38.206 8.648 39.247 8.383 C 39.267 8.842 39.247 9.131 39.247 9.154 C 39.247 9.226 39.286 9.276 39.346 9.276 C 39.346 9.276 39.346 9.276 39.346 9.276 C 39.404 9.276 39.444 9.226 39.444 9.154 C 39.444 9.154 39.464 8.816 39.444 8.334 C 39.817 8.238 40.209 8.166 40.621 8.093 L 40.621 9.878 C 40.621 9.926 40.641 9.976 40.681 9.999 L 41.21 10.216 L 41.21 10.843 C 41.21 10.891 41.23 10.938 41.268 10.964 L 42.447 11.446 C 42.447 11.446 42.447 11.446 42.447 11.446 C 42.447 11.446 42.466 11.446 42.466 11.446 C 42.526 11.446 42.565 11.398 42.565 11.326 L 42.565 9.758 C 42.565 9.421 42.721 9.276 42.859 9.276 C 43.036 9.276 43.35 9.421 43.35 9.999 L 43.35 11.808 C 43.35 11.857 43.369 11.904 43.408 11.904 C 43.408 11.904 43.408 11.904 43.408 11.904 C 43.408 11.904 43.408 11.904 43.408 11.904 C 43.408 11.904 43.408 11.904 43.408 11.904 L 44.586 12.386 C 44.605 12.386 44.605 12.386 44.625 12.386 C 44.625 12.386 44.644 12.386 44.644 12.386 L 48.178 11.181 C 48.217 11.157 48.256 11.109 48.256 11.06 L 48.256 10.505 C 48.609 10.674 49.236 11.06 49.236 11.543 C 49.276 12.048 46.981 13.376 44.665 13.376 Z M 37.402 12.412 C 37.265 12.412 37.168 12.459 37.049 12.531 C 36.912 12.58 36.775 12.653 36.618 12.653 C 36.559 12.653 36.519 12.603 36.519 12.531 C 36.519 12.459 36.559 12.412 36.618 12.412 C 36.736 12.412 36.854 12.363 36.97 12.291 C 37.108 12.218 37.246 12.17 37.402 12.17 C 37.56 12.17 37.697 12.243 37.834 12.291 C 37.952 12.338 38.07 12.412 38.188 12.412 C 38.305 12.412 38.423 12.363 38.542 12.291 C 38.677 12.218 38.815 12.17 38.973 12.17 C 39.032 12.17 39.07 12.218 39.07 12.291 C 39.07 12.363 39.032 12.412 38.973 12.412 C 38.835 12.412 38.737 12.459 38.62 12.531 C 38.482 12.58 38.344 12.653 38.188 12.653 C 38.011 12.653 37.893 12.58 37.755 12.531 C 37.639 12.459 37.52 12.412 37.402 12.412 Z" style="" bx:origin="-4.076602 0.893511"/>
</svg>